<?xml version="1.0" standalone="no"?>
<!DOCTYPE svg PUBLIC "-//W3C//DTD SVG 20010904//EN"
 "http://www.w3.org/TR/2001/REC-SVG-20010904/DTD/svg10.dtd">
<svg version="1.0" xmlns="http://www.w3.org/2000/svg"
 width="512.000000pt" height="512.000000pt" viewBox="0 0 512.000000 512.000000"
 preserveAspectRatio="xMidYMid meet">

<g transform="translate(0.000000,512.000000) scale(0.100000,-0.100000)"
fill="#E2E5EF" stroke="none">
<path d="M1460 5101 c-55 -29 -75 -64 -75 -129 0 -55 7 -70 159 -347 87 -159
171 -314 188 -342 l29 -53 -165 0 -166 0 -30 28 c-24 21 -34 42 -45 96 -10 49
-23 78 -42 98 -53 55 -144 61 -201 13 -43 -36 -55 -74 -50 -158 6 -100 48
-185 127 -261 84 -79 151 -108 269 -114 51 -2 92 -7 90 -11 -2 -4 -41 -42 -88
-86 -520 -482 -868 -1132 -979 -1831 -30 -190 -41 -337 -41 -544 0 -102 -5
-202 -10 -222 -15 -54 -51 -91 -128 -134 -84 -47 -187 -150 -230 -231 -180
-341 2 -758 373 -853 77 -20 112 -20 2115 -20 2003 0 2038 0 2115 20 315 80
505 401 425 714 -11 43 -34 105 -52 139 -43 81 -146 184 -230 231 -77 43 -113
80 -128 134 -5 20 -10 118 -10 217 0 207 -12 366 -41 549 -128 798 -561 1526
-1208 2026 -66 51 -121 97 -121 100 0 4 96 182 212 396 206 376 213 391 213
446 0 65 -20 99 -75 130 -32 18 -52 19 -255 15 -232 -5 -299 -15 -445 -63
-111 -37 -224 -93 -317 -157 l-83 -56 -82 56 c-157 107 -342 179 -538 208 -55
9 -168 15 -270 15 -152 0 -180 -3 -210 -19z m516 -306 c145 -33 279 -99 400
-198 125 -102 133 -107 181 -107 55 0 71 8 155 81 164 142 352 224 556 244
l74 7 -43 -78 c-24 -44 -96 -176 -161 -294 l-116 -215 -462 0 -462 0 -116 215
c-65 118 -137 250 -161 294 l-43 79 69 -7 c37 -4 95 -14 129 -21z m410 -883
c-4 -10 -74 -162 -156 -336 -131 -278 -150 -324 -150 -368 0 -46 4 -54 44 -94
40 -41 47 -44 96 -44 36 0 63 7 87 21 34 21 63 75 203 377 24 50 46 92 50 92
4 0 26 -42 50 -92 140 -302 169 -356 203 -377 23 -14 51 -21 86 -21 46 0 56 4
93 38 36 34 42 45 45 93 5 52 0 63 -146 373 -83 176 -153 328 -157 338 -5 17
4 18 159 18 l164 0 94 -66 c509 -361 896 -882 1083 -1463 100 -310 135 -528
146 -921 5 -174 12 -301 20 -325 36 -117 127 -229 241 -295 152 -89 207 -211
163 -360 -12 -41 -29 -67 -73 -111 -98 -98 115 -89 -2171 -89 -2286 0 -2073
-9 -2171 89 -44 44 -61 70 -73 111 -44 149 11 271 163 360 113 66 205 178 241
295 8 25 15 149 20 325 6 204 14 325 29 425 121 808 553 1506 1220 1973 l74
52 164 0 c155 0 164 -1 159 -18z"/>
<path d="M2453 2586 c-104 -34 -174 -96 -238 -210 l-37 -66 -51 6 c-63 6 -111
-15 -144 -65 -35 -51 -30 -104 19 -229 64 -164 94 -183 260 -162 124 15 151
25 187 65 50 58 51 139 1 193 -11 12 -20 23 -20 26 0 2 18 36 41 75 28 49 48
73 65 77 49 12 69 -3 132 -101 47 -74 70 -99 96 -110 80 -34 163 -6 198 65 30
59 23 97 -34 194 -109 182 -199 247 -351 253 -51 2 -98 -2 -124 -11z"/>
<path d="M3025 1871 c-40 -24 -54 -46 -98 -159 -42 -104 -46 -152 -17 -200 31
-50 75 -73 139 -70 l54 2 41 -76 c35 -65 39 -79 31 -104 -15 -43 -47 -54 -161
-54 -88 0 -105 -3 -134 -22 -52 -36 -72 -69 -72 -122 0 -62 27 -106 82 -134
42 -22 54 -23 170 -19 154 5 215 25 295 98 72 66 114 151 122 245 7 87 -13
161 -69 258 -33 56 -39 72 -29 85 53 72 62 149 23 200 -35 47 -66 62 -162 76
-128 20 -179 19 -215 -4z"/>
<path d="M1847 1655 c-20 -7 -44 -18 -52 -25 -31 -25 -124 -189 -141 -246 -34
-118 0 -254 87 -349 82 -88 176 -125 325 -125 l82 0 6 -31 c8 -42 67 -96 113
-105 69 -13 110 11 190 111 89 110 111 160 94 214 -6 21 -42 79 -81 129 -54
69 -79 93 -111 106 -80 32 -160 -3 -193 -84 l-16 -40 -80 0 c-73 0 -83 3 -105
25 -14 13 -25 34 -25 46 0 12 23 61 51 110 47 81 51 93 47 138 -10 99 -99 158
-191 126z"/>
</g>
</svg>
