<?xml version="1.0" standalone="no"?>
<!DOCTYPE svg PUBLIC "-//W3C//DTD SVG 20010904//EN"
 "http://www.w3.org/TR/2001/REC-SVG-20010904/DTD/svg10.dtd">
<svg version="1.0" xmlns="http://www.w3.org/2000/svg"
 width="1024.000000pt" height="785.000000pt" viewBox="0 0 1024.000000 785.000000"
 preserveAspectRatio="xMidYMid meet">

<g transform="translate(0.000000,785.000000) scale(0.100000,-0.100000)"
fill="#000000" stroke="none">
<path d="M10 7843 c0 -5 59 -146 132 -315 l131 -308 1529 0 1528 0 -157 315
-158 315 -1502 0 c-827 0 -1503 -3 -1503 -7z"/>
<path d="M5625 7833 c34 -89 1951 -4573 1955 -4573 3 0 599 1027 1325 2282
726 1254 1324 2287 1328 2294 7 12 -362 14 -2304 14 -2197 0 -2311 -1 -2304
-17z"/>
<path d="M450 6742 c0 -4 58 -142 129 -307 l128 -300 1530 -3 1531 -2 -157
310 -156 310 -1502 0 c-827 0 -1503 -3 -1503 -8z"/>
<path d="M903 5728 c13 -29 72 -169 133 -310 l109 -258 1528 0 c840 0 1527 2
1527 5 0 3 -69 142 -152 310 l-153 305 -1507 0 -1508 0 23 -52z"/>
<path d="M1325 4733 c3 -10 63 -150 132 -310 l126 -293 1529 0 1528 0 -155
310 -155 310 -1506 0 c-1430 0 -1506 -1 -1499 -17z"/>
<path d="M1760 3712 c0 -4 58 -142 129 -307 l128 -300 1532 -3 1533 -2 -159
310 -158 310 -1502 0 c-827 0 -1503 -3 -1503 -8z"/>
<path d="M2193 2683 c2 -5 62 -144 133 -310 l129 -303 1527 0 c841 0 1528 2
1528 5 0 3 -69 142 -152 310 l-153 305 -1508 0 c-830 0 -1506 -3 -1504 -7z"/>
<path d="M2632 1711 c2 -5 61 -144 132 -310 l129 -301 1529 0 1528 0 -155 310
-155 310 -1506 0 c-862 0 -1504 -4 -1502 -9z"/>
<path d="M3070 622 c0 -4 58 -142 129 -307 l128 -300 1531 -3 1530 -2 -156
310 -157 310 -1502 0 c-827 0 -1503 -3 -1503 -8z"/>
</g>
</svg>
