<?xml version="1.0" encoding="UTF-8"?>
<!DOCTYPE svg PUBLIC "-//W3C//DTD SVG 1.1//EN" "http://www.w3.org/Graphics/SVG/1.1/DTD/svg11.dtd">
<svg xmlns="http://www.w3.org/2000/svg" version="1.1" width="1024px" height="1024px" style="shape-rendering:geometricPrecision; text-rendering:geometricPrecision; image-rendering:optimizeQuality; fill-rule:evenodd; clip-rule:evenodd" xmlns:xlink="http://www.w3.org/1999/xlink">
<g><path style="opacity:0.998" fill="#fefefe" d="M 480.5,-0.5 C 501.167,-0.5 521.833,-0.5 542.5,-0.5C 712.443,14.1861 845.276,91.5195 941,231.5C 989.815,307.778 1017.31,391.111 1023.5,481.5C 1023.5,501.5 1023.5,521.5 1023.5,541.5C 1011.09,697.504 943.761,823.671 821.5,920C 737.873,982.294 643.873,1016.79 539.5,1023.5C 520.833,1023.5 502.167,1023.5 483.5,1023.5C 344.28,1013.63 227.113,957.968 132,856.5C 52.1854,766.828 8.01878,661.828 -0.5,541.5C -0.5,521.167 -0.5,500.833 -0.5,480.5C 13.0404,321.217 83.0404,193.383 209.5,97C 290.536,39.0404 380.869,6.54041 480.5,-0.5 Z"/></g>
<g><path style="opacity:1" fill="#0675d5" d="M 404.5,334.5 C 354.003,335.499 303.336,335.832 252.5,335.5C 248.181,325.526 243.848,315.526 239.5,305.5C 289.833,304.167 340.167,304.167 390.5,305.5C 395.45,315.066 400.117,324.733 404.5,334.5 Z"/></g>
<g><path style="opacity:1" fill="#020b79" d="M 547.5,304.5 C 624.167,304.333 700.834,304.5 777.5,305C 733.207,381.085 689.04,457.251 645,533.5C 612.488,457.145 579.988,380.812 547.5,304.5 Z"/></g>
<g><path style="opacity:1" fill="#81b9ea" d="M 404.5,334.5 C 405.043,334.56 405.376,334.893 405.5,335.5C 354.335,336.831 303.335,336.831 252.5,335.5C 303.336,335.832 354.003,335.499 404.5,334.5 Z"/></g>
<g><path style="opacity:1" fill="#1377d5" d="M 261.5,358.5 C 311.501,358.333 361.501,358.5 411.5,359C 416.833,369.333 422.167,379.667 427.5,390C 376.5,390.667 325.5,390.667 274.5,390C 269.673,379.683 265.34,369.183 261.5,358.5 Z"/></g>
<g><path style="opacity:1" fill="#1377d5" d="M 283.5,413.5 C 333.501,413.333 383.501,413.5 433.5,414C 439.191,424.214 444.191,434.714 448.5,445.5C 397.832,445.667 347.166,445.5 296.5,445C 291.673,434.683 287.34,424.183 283.5,413.5 Z"/></g>
<g><path style="opacity:1" fill="#81b9ea" d="M 455.5,468.5 C 405.331,468.168 355.331,468.501 305.5,469.5C 304.957,469.44 304.624,469.107 304.5,468.5C 354.998,467.169 405.332,467.169 455.5,468.5 Z"/></g>
<g><path style="opacity:1" fill="#0675d5" d="M 455.5,468.5 C 460.487,478.473 465.487,488.473 470.5,498.5C 419.504,499.5 368.504,499.833 317.5,499.5C 313.699,489.432 309.699,479.432 305.5,469.5C 355.331,468.501 405.331,468.168 455.5,468.5 Z"/></g>
<g><path style="opacity:1" fill="#0675d5" d="M 491.5,552.5 C 441.003,553.499 390.336,553.832 339.5,553.5C 335.461,543.218 331.127,533.051 326.5,523C 376.837,522.167 427.17,522.333 477.5,523.5C 482.45,533.066 487.117,542.733 491.5,552.5 Z"/></g>
<g><path style="opacity:1" fill="#80b8e9" d="M 491.5,552.5 C 492.043,552.56 492.376,552.893 492.5,553.5C 441.335,554.831 390.335,554.831 339.5,553.5C 390.336,553.832 441.003,553.499 491.5,552.5 Z"/></g>
<g><path style="opacity:1" fill="#4397df" d="M 498.5,577.5 C 448.489,576.838 398.822,577.505 349.5,579.5C 348.596,578.791 348.263,577.791 348.5,576.5C 398.669,576.168 448.669,576.501 498.5,577.5 Z"/></g>
<g><path style="opacity:1" fill="#0575d5" d="M 498.5,577.5 C 503.739,586.975 508.739,596.642 513.5,606.5C 463.003,607.499 412.336,607.832 361.5,607.5C 357.5,598.167 353.5,588.833 349.5,579.5C 398.822,577.505 448.489,576.838 498.5,577.5 Z"/></g>
<g><path style="opacity:1" fill="#4397df" d="M 513.5,606.5 C 514.043,606.56 514.376,606.893 514.5,607.5C 463.335,608.831 412.335,608.831 361.5,607.5C 412.336,607.832 463.003,607.499 513.5,606.5 Z"/></g>
<g><path style="opacity:1" fill="#c0dcf5" d="M 520.5,631.5 C 470.331,631.168 420.331,631.501 370.5,632.5C 369.957,632.44 369.624,632.107 369.5,631.5C 419.998,630.169 470.332,630.169 520.5,631.5 Z"/></g>
<g><path style="opacity:1" fill="#0575d5" d="M 520.5,631.5 C 525.5,641.5 530.5,651.5 535.5,661.5C 484.598,662.83 433.598,662.83 382.5,661.5C 378.774,651.715 374.774,642.048 370.5,632.5C 420.331,631.501 470.331,631.168 520.5,631.5 Z"/></g>
<g><path style="opacity:1" fill="#c0dcf5" d="M 382.5,661.5 C 433.598,662.83 484.598,662.83 535.5,661.5C 536.043,661.56 536.376,661.893 536.5,662.5C 510.833,662.833 485.167,663.167 459.5,663.5C 433.491,663.5 407.825,662.833 382.5,661.5 Z"/></g>
<g><path style="opacity:1" fill="#0e77d5" d="M 392.5,685.5 C 442.504,685.167 492.504,685.5 542.5,686.5C 547.5,696.5 552.5,706.5 557.5,716.5C 506.837,717.667 456.17,717.833 405.5,717C 400.466,706.769 396.133,696.269 392.5,685.5 Z"/></g>
</svg>
